<?xml version="1.0" encoding="UTF-8"?>
<svg version="1.1" viewBox="0 0 1600 1600" width="1280" height="1280" xmlns="http://www.w3.org/2000/svg">
<path transform="translate(360,541)" d="m0 0c0.852 0.0715 1.7 0.143 2.58 0.217 4.8 0.437 9.41 1.08 14.1 2.22 1.11 0.268 2.21 0.536 3.36 0.812 3.34 0.848 6.65 1.75 9.96 2.75 0.964 0.276 1.93 0.552 2.92 0.836 7.37 2.16 14.2 4.74 21.1 8.16 0.699 0.343 1.4 0.686 2.12 1.04 10.9 5.36 20.7 11.1 29.9 19 0.798 0.67 1.6 1.34 2.42 2.03 7.97 6.95 15.3 14.6 22.7 22.1 1.54 1.56 3.1 3.1 4.67 4.64 5.43 5.54 9.47 12.1 13.6 18.7 1.23 1.94 2.53 3.84 3.85 5.72 1.72 2.76 2.78 5.45 3.85 8.51 1.06 2.71 2.38 5.21 3.74 7.78 3.14 6.24 5.4 12.5 7.41 19.2 0.344 1.14 0.687 2.28 1.04 3.45 2.62 8.97 4.38 17.5 4.71 26.9 0.0303 0.807 0.0606 1.61 0.0918 2.45 0.562 18.2 0.78 40.1-8.09 56.6-0.604 1.2-1.21 2.41-1.8 3.61-4.12 8.25-4.12 8.25-5.16 10.3-0.693 1.39-1.38 2.78-2.06 4.18-1.96 4-4.04 7.73-6.6 11.4-0.59 0.856-1.18 1.71-1.79 2.59-0.523 0.629-1.05 1.26-1.59 1.91h-2c-0.248 0.722-0.495 1.44-0.75 2.19-2.39 5.38-6.2 8.71-10.6 12.4-1.83 1.62-3.15 3.46-4.61 5.42-0.99 0.33-1.98 0.66-3 1-1.34 1.32-2.67 2.66-4 4-12 9.19-24.6 15.2-39 20-1.31 0.449-1.31 0.449-2.65 0.906-5.53 1.79-11 2.78-16.8 3.57-2.01 0.297-4.02 0.619-6.01 1.02-6.83 1.37-13.3 1.81-20.3 1.76-0.989 0.00773-1.98 0.0155-3 0.0234-5.49-0.0147-9.99-0.598-15.3-2.27-2.37-0.29-4.75-0.538-7.12-0.75-6.78-0.729-13.2-2.24-19.8-4.12-0.855-0.245-1.71-0.489-2.59-0.741-8.74-2.6-17.1-5.96-25.2-10.1-0.623-0.316-1.25-0.632-1.89-0.957-1.5-0.761-2.99-1.53-4.49-2.29v-2h-6c4.87 3.38 9.7 6.53 15.1 9.04 1.92 0.957 1.92 0.957 4.23 2.35 3.12 1.86 6.32 3.48 9.57 5.11 1.17 0.588 2.35 1.18 3.55 1.78 5.22 2.51 10.3 4.8 15.9 6.22 3.41 0.89 6.74 1.84 10.1 3 26.8 8.98 61.1 10.2 88.6 3.5 1.14-0.275 2.28-0.549 3.45-0.832 2-0.499 3.99-1.01 5.98-1.54 3.51-0.86 6.97-1.28 10.6-1.63-1.14 0.835-1.14 0.835-2.31 1.69-2.75 2.12-2.75 2.12-4.19 4.81-1.78 2.97-3.73 4.44-6.5 6.5-1.33 1.21-1.33 1.21-2.69 2.44-3.27 2.73-6.86 4.49-10.7 6.31-1.66 0.793-3.3 1.62-4.92 2.5-9.31 5.02-20.1 8.9-30.7 9.57-2.08 0.19-3.9 0.678-5.91 1.24-23 5.14-51.1-2.46-70.7-14.6-5.44-3.46-10.4-7.31-15.3-11.5-1.15-0.952-2.29-1.9-3.44-2.85-11.7-9.78-22.1-20.7-29.6-34.1v-2h-2c-4.94-9.85-9.57-19.4-12.2-30.1-0.72-2.75-1.69-5.25-2.75-7.88-4.43-15.6-3.45-32.9 4.19-47.2 0.926-1.61 1.86-3.22 2.81-4.81h2c0.22-0.844 0.441-1.69 0.668-2.56 1.61-4.16 3.85-7.08 6.64-10.5 0.474-0.599 0.947-1.2 1.44-1.81 2.89-3.6 5.92-6.91 9.25-10.1 0.816-0.802 1.63-1.6 2.47-2.43 6.36-6.01 12.8-10.4 20.5-14.6 0.862-0.554 1.72-1.11 2.61-1.68 3.21-1.77 5.79-1.53 9.39-1.32-1.98 0.99-1.98 0.99-4 2v2c-1.45 0.402-1.45 0.402-2.94 0.812-1.52 0.588-1.52 0.588-3.06 1.19-0.33 0.99-0.66 1.98-1 3-1.32 0.683-2.66 1.35-4 2-1.79 1.73-1.79 1.73-3.44 3.75-0.903 1.07-0.903 1.07-1.82 2.15-0.86 1.04-0.86 1.04-1.74 2.1-0.721 0.868-0.721 0.868-1.46 1.75-0.64 0.772-0.64 0.772-1.29 1.56-2.25 2.69-2.25 2.69-3.71 4.11-11.8 12.1-19.1 32-20.5 48.6 0.33-0.33 0.66-0.66 1-1 1.85-0.11 3.71-0.186 5.56-0.25 8.32-0.576 15.6-2.99 23.4-5.75 1.45-0.499 1.45-0.499 2.92-1.01 8.2-3.03 15.2-7.5 21.1-14 0.666-0.686 1.33-1.37 2.02-2.08 6.08-6.42 10.6-13.3 15-20.9 0.659-1.12 1.32-2.23 2-3.38 3.18-5.45 6.18-10.9 8.9-16.6 6.11-12.7 14.7-27.2 26.3-35.6 2.1-1.38 2.1-1.38 2.8-4.42h3c-2.26-2.26-6.8-1.31-9.83-1.32-19.5 0.317-39.4 3.45-57.9 9.59-2.42 0.781-4.86 1.47-7.31 2.16-4.74 1.42-8.98 3.34-13.3 5.7-0.728 0.392-1.46 0.784-2.2 1.19-11.5 6.37-23.1 14.2-28.4 26.7-0.33-0.66-0.66-1.32-1-2 0.927-2.39 1.93-4.67 3-7 0.268-0.661 0.536-1.32 0.812-2 5.64-13.7 14.7-24.8 24.2-36 0.507-0.616 1.01-1.23 1.54-1.87 3.08-3.69 6.24-6.82 10-9.82 0.909-0.726 1.82-1.45 2.75-2.2 0.886-0.697 1.77-1.39 2.68-2.11 0.811-0.672 1.62-1.34 2.46-2.04 2.78-2.15 5.64-3.94 8.67-5.71 1.03-0.614 2.07-1.23 3.13-1.86 2.74-1.39 2.74-1.39 5.74-1.39 0.33-0.66 0.66-1.32 1-2 1.99-0.942 4.02-1.81 6.06-2.62 1.1-0.446 2.21-0.892 3.35-1.35 1.28-0.507 1.28-0.507 2.59-1.02-5.44 0.99-5.44 0.99-11 2v2c-1.99 0.163-3.97 0.326-5.96 0.488-2.51 0.627-3.28 1.67-5.04 3.51-2.16 1.1-2.16 1.1-4.5 2.06-2.79 1.16-4.96 2.25-7.5 3.94-2.69-0.375-2.69-0.375-5-1 0.234-1.56 0.234-1.56 0.473-3.16 1.76-12.6 1.43-24.2-0.473-36.8h-1c-0.184-0.779-0.369-1.56-0.559-2.36-2.28-8.81-5.56-16.8-9.44-25-0.386-0.822-0.772-1.64-1.17-2.49-0.527-1.1-0.527-1.1-1.07-2.22-0.763-1.95-0.763-1.95-0.763-4.95 2.62-0.627 5.25-1.25 7.88-1.88 0.727-0.174 1.45-0.348 2.2-0.527 9.56-2.26 18.9-4 28.7-4.79 1.08-0.0868 2.16-0.174 3.28-0.263 10.4-0.736 20.6-0.437 30.9 0.45zm-56 67 1 3z" fill="#67A42B"/>
<path transform="translate(285,552)" d="m0 0c-0.599 2.35-1.27 4.69-2 7-0.66 0.33-1.32 0.66-2 1-0.961 2.23-0.961 2.23-1.81 4.94-2.92 8.33-6.76 15.6-11.7 22.9-7.83 11.6-12.7 26-11.5 40.2 1.21 6.12 2.88 12.1 5 18 2.31 0.403 2.31 0.403 5 0 11.4-10.2 18.9-27 21-42 0.99-0.33 1.98-0.66 3-1 0.586 10.6-0.851 19-4 29h-2c-0.103 0.722-0.206 1.44-0.312 2.19-0.765 3.13-1.92 5.13-3.69 7.81-0.681 1.09-1.36 2.19-2.06 3.31-0.639 0.887-1.28 1.77-1.94 2.69h-2c-0.238 0.722-0.477 1.44-0.723 2.19-1.47 3.23-3.27 5.24-5.71 7.81-2.41 2.54-4.44 4.79-6.22 7.81-0.442 0.722-0.884 1.44-1.34 2.19h-2c-0.12 0.598-0.24 1.2-0.363 1.81-0.812 2.79-2.45 4.69-4.17 7-2.98 4.45-5.14 9.38-7.46 14.2-0.523 1.02-1.05 2.04-1.59 3.1-1.18 2.43-2.11 4.71-2.91 7.28-0.903 2.82-1.86 5.55-2.94 8.31-9.87 26.4-11.4 59.2-3.56 86.3 0.3 1.05 0.601 2.1 0.91 3.18 4.09 13.8 9.24 27.3 16.8 39.6 1.29 2.22 1.29 2.22 1.29 4.22 0.99 0.33 1.98 0.66 3 1 0.971 1.68 1.94 3.37 2.85 5.08 1.87 3.14 4.36 5.63 6.9 8.23 5.25 5.43 5.25 5.43 5.25 7.69 0.866 0.371 0.866 0.371 1.75 0.75 2.58 1.43 4.31 3.03 6.25 5.25v2c0.572 0.268 1.14 0.536 1.73 0.812 2.34 1.23 4.39 2.61 6.52 4.19 0.706 0.516 1.41 1.03 2.14 1.56 0.797 0.712 0.797 0.712 1.61 1.44v2c-14.2 0.561-27-7.2-39-14-1.46-0.808-1.46-0.808-2.95-1.63-9.16-5.26-16.9-12.1-24.7-19.3-2.11-1.91-4.27-3.74-6.46-5.55-0.949-0.846-1.9-1.69-2.88-2.56v-2h-2c-1.59-1.61-1.59-1.61-3.38-3.75-1.96-2.32-3.88-4.5-6.06-6.62-1.56-1.62-1.56-1.62-1.56-3.62h-2c-11.4-13.6-19.5-29.6-26-46-0.507-1.2-0.507-1.2-1.02-2.43-6.23-15.6-8.95-32.9-9.98-49.6-0.0722-1.15-0.144-2.31-0.219-3.5-0.507-18.3 1.29-38.2 7.22-55.5 0.226-0.679 0.452-1.36 0.685-2.06 7.98-23.9 7.98-23.9 13.3-30.9 0.76-1.51 1.49-3.03 2.19-4.56 2.48-5.11 5.61-9.49 9.04-14 1.53-2.11 2.62-4.12 3.77-6.45 1.64-1.69 3.31-3.35 5-5 0.946-1.12 1.88-2.24 2.81-3.38 2.83-3.35 5.97-6.16 9.3-9 1.58-1.37 3.09-2.83 4.57-4.32 2.31-2.31 4.76-4.28 7.31-6.31 0.577-0.619 1.16-1.24 1.75-1.88 2.8-2.65 5.88-4.6 9.13-6.66 2.1-1.34 2.1-1.34 3.48-2.9 1.87-1.78 3.71-2.84 6-4.05 0.862-0.457 1.72-0.913 2.61-1.38 1.38-0.713 1.38-0.713 2.78-1.44 0.937-0.487 1.87-0.974 2.84-1.48 22.1-11.3 22.1-11.3 27.4-9.21zm-14 97c0.33 0.66 0.66 1.32 1 2 0.33-0.66 0.66-1.32 1-2h-2z" fill="#79CD3F"/>
<path transform="translate(898,648)" d="m0 0c3.6 1.97 5.08 4.44 7 8 0.575 0.929 1.15 1.86 1.74 2.82 1.84 3.02 3.56 6.08 5.26 9.18 0.55 0.991 1.1 1.98 1.67 3 2.55 4.62 4.97 9.28 7.33 14 0.557 0.887 1.11 1.77 1.69 2.69 1.31 2.31 1.31 2.31 1.31 5.31h2c2.65 4.76 5.28 9.52 7.88 14.3 2.23 4.09 4.5 8.15 6.81 12.2 0.841 1.47 0.841 1.47 1.7 2.97 1.4 2.2 2.75 3.74 4.61 5.53 0.833-8.8 1.12-17.5 1.04-26.4-0.0177-2.12-0.0278-4.25-0.0359-6.37-0.0242-6.02-0.0604-12-0.105-18.1-0.0267-3.71-0.0438-7.42-0.0549-11.1-0.00621-1.41-0.0162-2.82-0.0301-4.22-0.0191-1.95-0.025-3.91-0.0303-5.86-0.00746-1.11-0.0149-2.22-0.0226-3.37 0.234-2.62 0.234-2.62 2.23-4.62 3.19-0.266 3.19-0.266 7-0.25 1.26-0.00516 2.52-0.0103 3.81-0.0156 3.19 0.266 3.19 0.266 5.19 2.27 0.204 3.05 0.283 6 0.275 9.05 0.00511 0.938 0.0102 1.88 0.0155 2.84 0.0139 3.11 0.0129 6.23 0.0106 9.34 0.00388 2.16 0.00822 4.32 0.013 6.48 0.00747 4.53 0.00716 9.07 0.00191 13.6-0.00579 5.81 0.0111 11.6 0.0343 17.4 0.0147 4.46 0.0156 8.93 0.0125 13.4 5.14e-4 2.14 0.00576 4.28 0.0158 6.43 0.0123 3 0.00559 5.99-0.00601 8.99 0.00764 0.886 0.0153 1.77 0.0232 2.68-0.0405 4.73-0.277 7.94-3.4 11.8-5.43 3.62-13.9 3.64-20.3 2.64-8.28-3.05-12.7-12.8-16.7-20-0.755-1.34-0.755-1.34-1.53-2.71-1.48-2.63-2.95-5.27-4.41-7.91-2.94-5.31-5.91-10.6-8.94-15.9-2.42-4.22-4.81-8.46-7.12-12.8-3.18-5.87-6.54-11.6-9.94-17.4-0.543-0.941-1.09-1.88-1.64-2.85-0.447-0.709-0.895-1.42-1.36-2.15h-1c-0.33 26.7-0.66 53.5-1 81-15 0-15 0-18-2-0.302-2.88-0.409-5.55-0.388-8.44-0.00526-0.873-0.0105-1.75-0.0159-2.65-0.0132-2.9-0.00444-5.8 0.00568-8.7-0.00202-2.02-0.00493-4.03-0.0087-6.05-0.00443-4.23 0.00203-8.47 0.016-12.7 0.017-5.41 0.0073-10.8-0.0107-16.2-0.0109-4.17-0.00737-8.34 3.83e-4 -12.5 0.00199-1.99-4.28e-4 -3.99-0.00744-5.98-0.00768-2.8 0.00408-5.6 0.0207-8.4-0.00607-0.815-0.0121-1.63-0.0184-2.47 0.0664-6.09 0.787-12.7 4.82-17.6 5.34-4.4 16.1-3.4 22.6-2.31zm49 81c0.66 0.66 1.32 1.32 2 2v-2h-2z" fill="#7ACE40"/>
<path transform="translate(782 648)" d="m0 0c0.775-0.00333 1.55-0.00666 2.35-0.0101 1.63-0.00502 3.26-0.00741 4.89-0.00725 2.45-0.00218 4.89-0.0204 7.34-0.0393 25.6-0.0961 25.6-0.0961 32.5 5.22 12.5 13 10.8 32.4 10.8 49.2-0.00318 3.08 0.0205 6.16 0.0457 9.23 0.0757 23.8 0.0757 23.8-6.36 32.6-0.557 0.846-1.11 1.69-1.69 2.56-5.71 6.02-12.6 7.2-20.7 7.54-2.58 0.0476-5.16 0.0647-7.74 0.068-1.42 0.00499-1.42 0.00499-2.86 0.0101-1.99 0.00504-3.97 0.00741-5.96 0.00725-3.02 0.00219-6.03 0.0204-9.05 0.0393-1.94 0.00293-3.88 0.00492-5.82 0.00586-0.891 0.00719-1.78 0.0144-2.7 0.0218-9.67-0.0348-17.4-1.33-24.5-8.25-10-11.3-8.32-26.7-8.26-40.8 0.0107-3.08 6.61e-5 -6.16-0.0127-9.25-0.0226-26.7-0.0226-26.7 5.27-34.9 0.313-0.699 0.626-1.4 0.949-2.12 2.38-4.26 7.29-6.93 11.5-9.2 6.51-1.75 13.3-1.85 20-1.86zm-14.9 21.9c-4 5.92-5.01 10.9-4.93 17.9-4.99e-4 0.803-9.97e-4 1.61-0.00151 2.43 0.00233 1.69 0.012 3.39 0.0286 5.08 0.0234 2.55 0.0206 5.09 0.0139 7.64-0.769 15.5-0.769 15.5 3.96 29.5 5.53 4.17 11.8 4.07 18.4 3.93 0.844-0.0132 1.69-0.0263 2.56-0.0399 1.77-0.0323 3.55-0.0704 5.32-0.114 2.71-0.0608 5.41-0.0839 8.12-0.106 1.73-0.0361 3.46-0.0744 5.19-0.115 1.21-0.00351 1.21-0.00351 2.44-0.0071 4.23-0.146 5.89-0.418 9.32-3.13 2.74-3.58 3.14-6.15 3.19-10.5 0.0128-0.995 0.0257-1.99 0.0389-3.02 0.00739-1.07 0.0148-2.15 0.0224-3.26 0.00807-1.11 0.0161-2.22 0.0245-3.36 0.0138-2.35 0.0246-4.7 0.0324-7.05 0.0172-3.58 0.0611-7.16 0.105-10.7 0.0101-2.28 0.0186-4.57 0.0254-6.85 0.0175-1.06 0.035-2.13 0.0531-3.23-0.0179-6.18-0.404-11.7-4.48-16.6-2.3-1.15-2.3-1.15-5-1-1.1-0.0782-2.21-0.156-3.35-0.237-3.38-0.134-6.77-0.264-10.2-0.375-2.16-0.0741-4.33-0.165-6.49-0.257-12.8-0.784-12.8-0.784-24.4 3.56z" fill="#7ACE40"/>
<path transform="translate(1293,647)" d="m0 0v2c0.598 0.25 1.2 0.5 1.81 0.758 6.67 3.79 9.08 12.3 11.2 19.1 1.3 4.07 2.95 7.95 4.63 11.9 2.05 4.86 3.98 9.77 5.93 14.7 1.43 3.54 2.92 7.04 4.43 10.5 1.89 4.6 3.72 9.21 5.44 13.9 1.23 3.31 2.57 6.56 3.94 9.81 7.79 18.6 7.79 18.6 8.62 23.3-2.36 2.36-8.34 1.49-11.6 1.52-6.61-0.171-6.61-0.171-9.69-3.33-0.93-1.96-0.93-1.96-1.69-4.19-0.468-1.18-0.468-1.18-0.945-2.39-0.686-1.81-1.34-3.63-1.96-5.46-1.25-3.59-2.62-7.13-4.03-10.7-0.258-0.645-0.515-1.29-0.781-1.95-1.5-3.71-3.09-7.36-4.78-11-3.94-8.52-7.06-17.4-10.1-26.3-0.269-0.771-0.538-1.54-0.815-2.34-0.517-1.49-1.03-2.98-1.54-4.47-1.09-3.15-2.14-5.71-4-8.5 0.33-0.66 0.66-1.32 1-2-4.19 3.45-5.4 7.13-7 12.1-0.517 1.54-1.03 3.07-1.55 4.61-0.247 0.738-0.494 1.48-0.749 2.24-1.4 4.08-3.05 8.05-4.7 12-0.752 1.87-1.5 3.75-2.25 5.62-0.583 1.46-1.17 2.92-1.75 4.38 4.96 1.07 9.49 0.908 14.5 0.547 2.49 0.453 2.49 0.453 4.18 2.61 1.29 2.81 2.45 5.61 3.49 8.53 0.344 0.953 0.688 1.91 1.04 2.89 0.77 2.43 0.77 2.43 0.77 4.43-10.7 0.872-21.3 1.12-32 1-2.09 4.81-4.02 9.65-5.84 14.6-1.46 3.06-2.64 5.12-5.16 7.43-3 0.208-5.32 0.172-8.25-0.188-1.12-0.105-1.12-0.105-2.26-0.213-1.83-0.176-3.66-0.385-5.49-0.6-1.28-5.16-0.0194-8.24 2-13 0.686-1.72 1.37-3.44 2.05-5.16 0.773-1.94 1.55-3.89 2.33-5.83 1.84-4.58 3.67-9.16 5.5-13.7 1.05-2.63 2.1-5.25 3.16-7.87 1.5-3.71 2.96-7.43 4.35-11.2 2.57-6.96 5.22-13.8 8.39-20.5 1.36-3.05 2.5-6.14 3.65-9.27 3.2-8.35 6.37-16.2 14.5-20.7 4.24-1.6 7.82-1.17 12 0.234z" fill="#7ACE40"/>
<path transform="translate(569 645)" d="m0 0c1.12-0.0748 2.24-0.15 3.4-0.227 3.55 0.938 3.92 1.26 5.85 4.17 2.83 5.18 4.93 10.7 7 16.2 0.382 0.994 0.763 1.99 1.16 3.01 1.63 4.26 3.23 8.53 4.82 12.8 1.29 3.4 2.68 6.72 4.15 10.1 2.41 5.58 4.68 11.2 6.88 16.9 0.297 0.765 0.594 1.53 0.9 2.32 1.26 3.25 2.5 6.5 3.7 9.76 0.338 0.901 0.675 1.8 1.02 2.73 0.273 0.754 0.547 1.51 0.828 2.29 0.879 2.01 0.879 2.01 3.92 2.65 0.371-1.15 0.742-2.31 1.12-3.5 3.17-9.5 6.62-18.9 10.8-28 1.77-4.11 3.29-8.32 4.85-12.5 2.84-7.65 5.84-15.2 9.21-22.6 1.45-3.33 2.72-6.73 3.98-10.1 1.12-2.37 1.88-3.66 4.03-5.16 2.78-0.328 2.78-0.328 5.94-0.25 1.04 0.0155 2.08 0.0309 3.15 0.0469 2.46 0.171 4.56 0.502 6.91 1.2 1.18 4.18 0.76 6.68-0.688 10.8-0.375 1.05-0.75 2.11-1.14 3.2-1.28 3.34-2.67 6.59-4.17 9.84-1.47 3.25-2.76 6.56-4.07 9.88-0.801 2-1.65 3.99-2.5 5.97-2.18 5.12-4.07 10.4-5.97 15.6-0.509 1.39-1.02 2.78-1.53 4.16-0.256 0.71-0.512 1.42-0.775 2.15-1.94 5.25-1.94 5.25-4.16 7.47-0.654 1.85-0.654 1.85-1.19 4.06-7.01 24.3-7.01 24.3-14.8 31.9-5.12 2.82-11.5 2.56-17 1-6.24-3.72-8.94-9.04-11.6-15.6-0.383-0.89-0.765-1.78-1.16-2.7-2.48-5.82-4.83-11.7-7.05-17.6-1.3-3.48-2.66-6.93-4.04-10.4-0.248-0.618-0.495-1.24-0.75-1.87-2.27-5.64-4.59-11.3-6.91-16.9-1.84-4.46-3.66-8.91-5.43-13.4-0.835-2.08-1.7-4.15-2.58-6.21-2.86-6.79-5.2-12.9-5.46-20.4 3.47-2.31 5.26-2.45 9.38-2.62z" fill="#7ACE40"/>
<path transform="translate(1013 691)" d="m0 0c0.923-0.00315 1.85-0.0063 2.8-0.00955 0.995 0.00202 1.99 0.00405 3.01 0.00613 1.56-0.00144 1.56-0.00144 3.15-0.0029 2.21-6.81e-4 4.41 0.00117 6.62 0.00534 3.32 0.00527 6.63 9.17e-5 9.95-0.00635 9.77-0.00348 19.5 0.0617 29.3 0.582 1.12 0.0581 1.12 0.0581 2.25 0.117 5.03 0.308 5.03 0.308 7.28 1.44 0.0268 2.65 0.0468 5.29 0.0625 7.94 0.00838 0.755 0.0168 1.51 0.0254 2.29 0.00863 1.93-0.0356 3.85-0.0879 5.78-1 1-1 1-3.4 1.12-1.06-0.00222-2.13-0.00444-3.22-0.00673-1.2-7.55e-5 -2.4-1.51e-4 -3.64-2.29e-4 -1.31-0.00516-2.61-0.0103-3.96-0.0156-1.34-0.00186-2.69-0.00329-4.03-0.00429-3.54-0.00382-7.09-0.0137-10.6-0.0247-3.61-0.0102-7.23-0.0148-10.8-0.0198-7.09-0.0107-14.2-0.0278-21.3-0.0488-0.0358 1.57-0.061 3.15-0.082 4.72-0.0152 0.876-0.0305 1.75-0.0461 2.65 0.199 4.08 1.36 6.95 3.13 10.6 3.23 2.15 4.13 2.26 7.85 2.29 1.48 0.0201 1.48 0.0201 2.98 0.0406 1.06 0.00528 2.13 0.0106 3.22 0.016 1.09 0.0146 2.19 0.0292 3.31 0.0443 3.5 0.0466 7 0.0807 10.5 0.112 4.6 0.0411 9.2 0.0948 13.8 0.156 1.06 0.00528 2.12 0.0106 3.21 0.016 0.991 0.0134 1.98 0.0268 3 0.0406 0.868 0.00729 1.74 0.0146 2.63 0.0221 3.07 0.328 6.23 1.02 8.48 3.27 0.1 2.25 0.13 4.5 0.125 6.75 0.00387 1.85 0.00387 1.85 0.00781 3.73-0.113 2.98-0.437 5.62-1.13 8.52-6.72 0.86-13.3 1.17-20.1 1.2-1.55 0.00855-1.55 0.00855-3.13 0.0173-2.17 0.00939-4.34 0.016-6.5 0.0198-3.3 0.00974-6.6 0.0408-9.89 0.0723-2.12 0.00653-4.23 0.0118-6.35 0.0156-0.975 0.0123-1.95 0.0247-2.96 0.0374-9.5-0.0306-17.2-2.09-24.1-8.87-9.5-11.7-7.66-27.4-7.44-41.6 0.734-5.1 3.55-8.63 7.42-11.9 2.92-0.957 5.6-1.13 8.67-1.13zm-14.7 36.1 1 2z" fill="#7ACE40"/>
<path transform="translate(1117 648)" d="m0 0c1.22 0.00607 1.22 0.00607 2.46 0.0123 0.855-0.0035 1.71-0.00701 2.59-0.0106 2.84-0.00883 5.67-0.00297 8.51 0.00378 1.97-0.00135 3.93-0.00329 5.9-0.0058 4.12-0.00295 8.25 0.00135 12.4 0.0107 5.29 0.0114 10.6 0.00484 15.9-0.00714 4.06-0.00722 8.12-0.00493 12.2 2.56e-4 1.95 0.00134 3.9-3.14e-4 5.86-0.00496 2.72-0.00506 5.45 0.00264 8.17 0.0138 0.813-0.00405 1.63-0.0081 2.46-0.0123 5.58 0.0425 5.58 0.0425 7.81 2.27v16c-11.9 0.33-23.8 0.66-36 1-0.33 28.4-0.66 56.8-1 86h-17c-1.78-1.78-1.12-4.15-1.12-6.52 0.00539-1.19 0.00539-1.19 0.0109-2.4-1.46e-4 -0.829-2.92e-4 -1.66-4.43e-4 -2.51 6.99e-4 -2.75 0.00849-5.51 0.0163-8.26 0.00186-1.9 0.00329-3.81 0.00429-5.71 0.00383-5.02 0.0137-10 0.0247-15.1 0.0102-5.12 0.0148-10.2 0.0198-15.4 0.0107-10.1 0.0278-20.1 0.0488-30.2-1.01 0.0157-2.03 0.0314-3.07 0.0476-3.76 0.0543-7.53 0.0887-11.3 0.117-1.63 0.0151-3.26 0.0356-4.89 0.0615-2.34 0.0364-4.68 0.0534-7.02 0.0667-1.09 0.0232-1.09 0.0232-2.21 0.0469-5.01 0.00167-5.01 0.00167-7.48-1.65-1.73-2.81-1.4-5.51-1.35-8.75 0.00387-1.25 0.00773-2.5 0.0117-3.79 0.536-5.62 3.06-5.38 8.11-5.42z" fill="#7ACE40"/>
<path transform="translate(702 648)" d="m0 0c1.03 0.0116 1.03 0.0116 2.09 0.0234 0.69-0.00773 1.38-0.0155 2.09-0.0234 5.16 0.0201 5.16 0.0201 7.41 2.27 0.249 1.85 0.249 1.85 0.247 4.14 0.00419 0.868 0.00839 1.74 0.0127 2.63-0.00843 1.43-0.00843 1.43-0.017 2.89 0.0019 1 0.0038 2.01 0.00575 3.04 0.00372 3.33-0.00701 6.66-0.0182 9.98-0.00119 2.3-0.00165 4.61-0.00139 6.91-0.00157 4.83-0.00987 9.67-0.0233 14.5-0.017 6.21-0.0208 12.4-0.0201 18.6-2.71e-4 4.76-0.00575 9.52-0.013 14.3-0.00319 2.29-0.00516 4.58-0.00589 6.87-0.00216 3.19-0.0109 6.39-0.0216 9.58 6.8e-4 1.43 6.8e-4 1.43 0.00137 2.9-0.00426 0.865-0.00853 1.73-0.0129 2.62-0.00168 0.756-0.00335 1.51-0.00508 2.29-0.129 1.73-0.129 1.73-1.13 2.73-2.47 0.127-4.9 0.185-7.38 0.188-0.686 0.0122-1.37 0.0245-2.08 0.0371-3.74 0.0109-5.36-0.0979-8.55-2.22-0.375-1.83-0.375-1.83-0.374-4.1-0.00701-0.858-0.014-1.72-0.0213-2.6 0.00764-0.943 0.0153-1.89 0.0232-2.86-0.00365-0.992-0.0073-1.98-0.0111-3.01-0.00813-3.29 0.00553-6.58 0.0201-9.87 5.18e-4 -2.28 1.76e-6 -4.56-0.00151-6.84 8.98e-5 -4.78 0.0105-9.56 0.0286-14.3 0.0227-6.14 0.0232-12.3 0.0165-18.4-0.00334-4.71 0.00328-9.42 0.0131-14.1 0.00386-2.26 5e-3 -4.53 0.00341-6.79-3.69e-4 -3.16 0.0122-6.32 0.0285-9.48-0.00248-0.943-0.00495-1.89-0.00751-2.86 0.00708-0.858 0.0142-1.72 0.0215-2.6 0.00205-0.748 0.00411-1.5 0.00622-2.27 0.623-4.49 3.89-4.09 7.66-4.11z" fill="#7ACE40"/>
<path transform="translate(1068 647)" d="m0 0c1.29 0.058 2.58 0.116 3.91 0.176 3.03 0.512 3.03 0.512 4.95 1.82 2.89 4.51 0.803 11.7 0.082 16.7-9.99 0.2-20 0.384-30 0.547-4.64 0.0761-9.28 0.158-13.9 0.252-4.47 0.0911-8.95 0.167-13.4 0.233-1.71 0.0278-3.42 0.061-5.13 0.0995-2.39 0.053-4.78 0.0872-7.17 0.117-0.709 0.0201-1.42 0.0403-2.15 0.061-2.86 0.0188-4.79 0.00352-7.2-1.62-1.77-2.83-1.33-5.61-1.24-8.88 0.0271-1.27 0.0541-2.54 0.082-3.86 0.0348-0.976 0.0696-1.95 0.105-2.96 3.64-2.31 6.63-2.17 10.9-2.06 4.82 0.0833 9.51 0.00794 14.3-0.438 15.2-1.21 30.7-0.876 45.9-0.188z" fill="#7ACE40"/>
<path transform="translate(290,603)" d="m0 0c0.586 10.6-0.851 19-4 29h-2c-0.155 1.08-0.155 1.08-0.312 2.19-0.759 3.11-1.95 5.14-3.69 7.81-0.557 0.928-1.11 1.86-1.69 2.81-0.433 0.722-0.866 1.44-1.31 2.19-1.65-0.66-3.3-1.32-5-2v-3c-0.66-0.33-1.32-0.66-2-1 0.447-0.534 0.895-1.07 1.36-1.62 7.67-9.45 13.3-20.5 15.1-32.7 0.17-0.892 0.34-1.78 0.516-2.7 2-1 2-1 3-1z" fill="#69A82D"/>
<path transform="translate(268,648)" d="m0 0c2.48 0.99 2.48 0.99 5 2-1.05 2.62-1.65 3.79-4.12 5.25-0.619 0.247-1.24 0.495-1.88 0.75l-2-4c0.99-0.33 1.98-0.66 3-1v-3z" fill="#6AAB2F"/>
<path transform="translate(320,676)" d="m0 0c0.99 0.33 1.98 0.66 3 1-2.48 1.49-2.48 1.49-5 3v-3c0.66-0.33 1.32-0.66 2-1z" fill="#000202"/>
<path transform="translate(289,594)" d="m0 0c0.99 1.49 0.99 1.49 2 3-0.33 0.99-0.66 1.98-1 3h-1v-6z" fill="#000202"/>
<path transform="translate(293,884)" d="m0 0c2.48 0.99 2.48 0.99 5 2-0.99 0.33-1.98 0.66-3 1-0.66-0.99-1.32-1.98-2-3z" fill="#68A52C"/>
<path transform="translate(456,847)" d="m0 0c0.66 0.33 1.32 0.66 2 1-1.98 0.99-1.98 0.99-4 2 0.66-0.99 1.32-1.98 2-3z" fill="#000202"/>
<path transform="translate(462,842)" d="m0 0c0.66 0.33 1.32 0.66 2 1-1.65 0.33-3.3 0.66-5 1 0.99-0.66 1.98-1.32 3-2z" fill="#223810"/>
<path transform="translate(301,626)" d="m0 0c1.49 0.99 1.49 0.99 3 2-1.32 0.33-2.64 0.66-4 1 0.33-0.99 0.66-1.98 1-3z" fill="#000202"/>
<path transform="translate(947,715)" d="m0 0h1v5h-1v-5z" fill="#7ACE40"/>
<path transform="translate(764,679)" d="m0 0 1 4z" fill="#000202"/>
<path transform="translate(289,884)" d="m0 0c3 1 3 1 3 1z" fill="#000202"/>
<path transform="translate(298,887)" d="m0 0 2 1z" fill="#000202"/>
<path transform="translate(397,838)" d="m0 0 2 1z" fill="#000202"/>
<path transform="translate(323,675)" d="m0 0 2 1z" fill="#000202"/>
<path transform="translate(325,674)" d="m0 0 2 1z" fill="#000202"/>
</svg>
